<svg width="43" height="43" viewBox="0 0 43 43" fill="none" xmlns="http://www.w3.org/2000/svg">
<g clip-path="url(#clip0_378_3292)">
<g style="mix-blend-mode:plus-lighter">
<path d="M30 13.9004C31.1552 13.9004 32.0996 14.8448 32.0996 16V28C32.0996 29.1552 31.1552 30.0996 30 30.0996H14C12.8448 30.0996 11.9004 29.1552 11.9004 28L11.9102 16L11.9209 15.7861C12.0278 14.7309 12.9164 13.9004 14 13.9004H30ZM29.335 16.7744C29.2357 16.754 29.1335 16.7542 29.0342 16.7744C28.9348 16.7947 28.8402 16.8348 28.7568 16.8926L28.7529 16.8945L22.0527 21.085L22 21.1182L21.9473 21.085L15.2471 16.8945L15.2432 16.8926C15.1597 16.8348 15.0652 16.7947 14.9658 16.7744C14.8665 16.7542 14.7643 16.754 14.665 16.7744C14.5657 16.7949 14.471 16.8356 14.3877 16.8936C14.3045 16.9515 14.2334 17.0254 14.1797 17.1113C14.126 17.1973 14.0908 17.2934 14.0752 17.3936C14.0596 17.4938 14.0647 17.5961 14.0898 17.6943C14.115 17.7926 14.1599 17.8853 14.2217 17.9658C14.2679 18.026 14.3229 18.0786 14.3848 18.1221L14.4492 18.1631L14.4531 18.165L21.5234 22.585C21.8109 22.7645 22.1891 22.7645 22.4766 22.585L29.5469 18.165L29.5508 18.1631C29.6391 18.1135 29.7166 18.0461 29.7783 17.9658C29.8401 17.8853 29.885 17.7926 29.9102 17.6943C29.9353 17.5961 29.9404 17.4938 29.9248 17.3936C29.9092 17.2934 29.874 17.1973 29.8203 17.1113C29.7666 17.0254 29.6955 16.9515 29.6123 16.8936C29.529 16.8356 29.4343 16.7949 29.335 16.7744Z" fill="url(#paint0_linear_378_3292)"/>
<path d="M30 13.9004C31.1552 13.9004 32.0996 14.8448 32.0996 16V28C32.0996 29.1552 31.1552 30.0996 30 30.0996H14C12.8448 30.0996 11.9004 29.1552 11.9004 28L11.9102 16L11.9209 15.7861C12.0278 14.7309 12.9164 13.9004 14 13.9004H30ZM29.335 16.7744C29.2357 16.754 29.1335 16.7542 29.0342 16.7744C28.9348 16.7947 28.8402 16.8348 28.7568 16.8926L28.7529 16.8945L22.0527 21.085L22 21.1182L21.9473 21.085L15.2471 16.8945L15.2432 16.8926C15.1597 16.8348 15.0652 16.7947 14.9658 16.7744C14.8665 16.7542 14.7643 16.754 14.665 16.7744C14.5657 16.7949 14.471 16.8356 14.3877 16.8936C14.3045 16.9515 14.2334 17.0254 14.1797 17.1113C14.126 17.1973 14.0908 17.2934 14.0752 17.3936C14.0596 17.4938 14.0647 17.5961 14.0898 17.6943C14.115 17.7926 14.1599 17.8853 14.2217 17.9658C14.2679 18.026 14.3229 18.0786 14.3848 18.1221L14.4492 18.1631L14.4531 18.165L21.5234 22.585C21.8109 22.7645 22.1891 22.7645 22.4766 22.585L29.5469 18.165L29.5508 18.1631C29.6391 18.1135 29.7166 18.0461 29.7783 17.9658C29.8401 17.8853 29.885 17.7926 29.9102 17.6943C29.9353 17.5961 29.9404 17.4938 29.9248 17.3936C29.9092 17.2934 29.874 17.1973 29.8203 17.1113C29.7666 17.0254 29.6955 16.9515 29.6123 16.8936C29.529 16.8356 29.4343 16.7949 29.335 16.7744Z" stroke="url(#paint1_linear_378_3292)" stroke-width="0.2"/>
</g>
<g style="mix-blend-mode:plus-lighter" filter="url(#filter0_f_378_3292)">
<ellipse cx="21.5" cy="53" rx="14" ry="24.5" transform="rotate(90 21.5 53)" fill="#52C3FF" fill-opacity="0.5"/>
</g>
</g>
<rect x="0.3" y="0.300977" width="42.4" height="42.4" rx="9.7" stroke="white" stroke-opacity="0.11" stroke-width="0.6"/>
<rect x="0.3" y="0.300977" width="42.4" height="42.4" rx="9.7" stroke="url(#paint2_linear_378_3292)" stroke-width="0.6"/>
<rect x="0.3" y="0.300977" width="42.4" height="42.4" rx="9.7" stroke="url(#paint3_linear_378_3292)" stroke-width="0.6"/>
<defs>
<filter id="filter0_f_378_3292" x="-35" y="7" width="113" height="92" filterUnits="userSpaceOnUse" color-interpolation-filters="sRGB">
<feFlood flood-opacity="0" result="BackgroundImageFix"/>
<feBlend mode="normal" in="SourceGraphic" in2="BackgroundImageFix" result="shape"/>
<feGaussianBlur stdDeviation="16" result="effect1_foregroundBlur_378_3292"/>
</filter>
<linearGradient id="paint0_linear_378_3292" x1="22" y1="14" x2="22" y2="32" gradientUnits="userSpaceOnUse">
<stop stop-color="white"/>
<stop offset="1" stop-color="white" stop-opacity="0.5"/>
</linearGradient>
<linearGradient id="paint1_linear_378_3292" x1="22" y1="18.2143" x2="22" y2="30" gradientUnits="userSpaceOnUse">
<stop stop-color="white" stop-opacity="0"/>
<stop offset="1" stop-color="white"/>
</linearGradient>
<linearGradient id="paint2_linear_378_3292" x1="21.5" y1="39.7434" x2="21.5" y2="43.001" gradientUnits="userSpaceOnUse">
<stop stop-color="#020614" stop-opacity="0"/>
<stop offset="1" stop-color="#49C0FF"/>
</linearGradient>
<linearGradient id="paint3_linear_378_3292" x1="38.4394" y1="12.7055" x2="43" y2="0.000975521" gradientUnits="userSpaceOnUse">
<stop stop-color="white" stop-opacity="0"/>
<stop offset="1" stop-color="white"/>
</linearGradient>
<clipPath id="clip0_378_3292">
<rect y="0.000976562" width="43" height="43" rx="10" fill="white"/>
</clipPath>
</defs>
</svg>
