<svg width="22" height="18" viewBox="0 0 22 18" fill="none" xmlns="http://www.w3.org/2000/svg">
<g style="mix-blend-mode:plus-lighter">
<path d="M19 0.900391C20.1552 0.900391 21.0996 1.84477 21.0996 3V15C21.0996 16.1552 20.1552 17.0996 19 17.0996H3C1.84477 17.0996 0.900391 16.1552 0.900391 15L0.910156 3L0.920898 2.78613C1.02777 1.73094 1.91637 0.900391 3 0.900391H19ZM18.335 3.77441C18.2357 3.754 18.1335 3.75417 18.0342 3.77441C17.9348 3.79469 17.8403 3.83481 17.7568 3.89258L17.7529 3.89453L11.0527 8.08496L11 8.11816L10.9473 8.08496L4.24707 3.89453L4.24316 3.89258C4.15975 3.83481 4.06524 3.79469 3.96582 3.77441C3.86652 3.75417 3.7643 3.754 3.66504 3.77441C3.56566 3.7949 3.47099 3.83562 3.3877 3.89355C3.30453 3.95146 3.2334 4.02539 3.17969 4.11133C3.126 4.19728 3.09077 4.29342 3.0752 4.39355C3.05963 4.49376 3.06474 4.59608 3.08984 4.69434C3.11498 4.79264 3.15989 4.88534 3.22168 4.96582C3.26793 5.02598 3.32293 5.07858 3.38477 5.12207L3.44922 5.16309L3.45312 5.16504L10.5234 9.58496C10.8109 9.76452 11.1891 9.76452 11.4766 9.58496L18.5469 5.16504L18.5508 5.16309C18.6391 5.1135 18.7166 5.04612 18.7783 4.96582C18.8401 4.88534 18.885 4.79264 18.9102 4.69434C18.9353 4.59608 18.9404 4.49376 18.9248 4.39355C18.9092 4.29342 18.874 4.19728 18.8203 4.11133C18.7666 4.02539 18.6955 3.95146 18.6123 3.89355C18.529 3.83562 18.4343 3.7949 18.335 3.77441Z" fill="url(#paint0_linear_291_3612)"/>
<path d="M19 0.900391C20.1552 0.900391 21.0996 1.84477 21.0996 3V15C21.0996 16.1552 20.1552 17.0996 19 17.0996H3C1.84477 17.0996 0.900391 16.1552 0.900391 15L0.910156 3L0.920898 2.78613C1.02777 1.73094 1.91637 0.900391 3 0.900391H19ZM18.335 3.77441C18.2357 3.754 18.1335 3.75417 18.0342 3.77441C17.9348 3.79469 17.8403 3.83481 17.7568 3.89258L17.7529 3.89453L11.0527 8.08496L11 8.11816L10.9473 8.08496L4.24707 3.89453L4.24316 3.89258C4.15975 3.83481 4.06524 3.79469 3.96582 3.77441C3.86652 3.75417 3.7643 3.754 3.66504 3.77441C3.56566 3.7949 3.47099 3.83562 3.3877 3.89355C3.30453 3.95146 3.2334 4.02539 3.17969 4.11133C3.126 4.19728 3.09077 4.29342 3.0752 4.39355C3.05963 4.49376 3.06474 4.59608 3.08984 4.69434C3.11498 4.79264 3.15989 4.88534 3.22168 4.96582C3.26793 5.02598 3.32293 5.07858 3.38477 5.12207L3.44922 5.16309L3.45312 5.16504L10.5234 9.58496C10.8109 9.76452 11.1891 9.76452 11.4766 9.58496L18.5469 5.16504L18.5508 5.16309C18.6391 5.1135 18.7166 5.04612 18.7783 4.96582C18.8401 4.88534 18.885 4.79264 18.9102 4.69434C18.9353 4.59608 18.9404 4.49376 18.9248 4.39355C18.9092 4.29342 18.874 4.19728 18.8203 4.11133C18.7666 4.02539 18.6955 3.95146 18.6123 3.89355C18.529 3.83562 18.4343 3.7949 18.335 3.77441Z" stroke="url(#paint1_linear_291_3612)" stroke-width="0.2"/>
</g>
<defs>
<linearGradient id="paint0_linear_291_3612" x1="11" y1="1" x2="11" y2="19" gradientUnits="userSpaceOnUse">
<stop stop-color="white"/>
<stop offset="1" stop-color="white" stop-opacity="0.5"/>
</linearGradient>
<linearGradient id="paint1_linear_291_3612" x1="11" y1="5.21429" x2="11" y2="17" gradientUnits="userSpaceOnUse">
<stop stop-color="white" stop-opacity="0"/>
<stop offset="1" stop-color="white"/>
</linearGradient>
</defs>
</svg>
