<svg width="43" height="43" viewBox="0 0 43 43" fill="none" xmlns="http://www.w3.org/2000/svg">
<g clip-path="url(#clip0_378_3295)">
<g style="mix-blend-mode:plus-lighter">
<path d="M32.8008 10.0259L32.6562 10.1909L24.6689 19.3423L34.0801 31.8159L34.2012 31.9761H26.5449L26.5146 31.937L20.7842 24.4312L14.2305 31.9419L14.2012 31.9761H10.252L10.3965 31.811L18.9414 22.0142L9.9209 10.188L9.79785 10.0269H17.6445L17.6738 10.0669L22.8379 16.9165L28.8242 10.0601L28.8545 10.0259H32.8008ZM27.6553 29.5679H29.4443L16.4307 12.3188H14.4951L27.6553 29.5679Z" fill="url(#paint0_linear_378_3295)"/>
<path d="M32.8008 10.0259L32.6562 10.1909L24.6689 19.3423L34.0801 31.8159L34.2012 31.9761H26.5449L26.5146 31.937L20.7842 24.4312L14.2305 31.9419L14.2012 31.9761H10.252L10.3965 31.811L18.9414 22.0142L9.9209 10.188L9.79785 10.0269H17.6445L17.6738 10.0669L22.8379 16.9165L28.8242 10.0601L28.8545 10.0259H32.8008ZM27.6553 29.5679H29.4443L16.4307 12.3188H14.4951L27.6553 29.5679Z" stroke="url(#paint1_linear_378_3295)" stroke-width="0.2"/>
</g>
<g style="mix-blend-mode:plus-lighter" filter="url(#filter0_f_378_3295)">
<ellipse cx="21.5" cy="53" rx="14" ry="24.5" transform="rotate(90 21.5 53)" fill="#52C3FF" fill-opacity="0.5"/>
</g>
</g>
<rect x="0.3" y="0.300977" width="42.4" height="42.4" rx="9.7" stroke="white" stroke-opacity="0.11" stroke-width="0.6"/>
<rect x="0.3" y="0.300977" width="42.4" height="42.4" rx="9.7" stroke="url(#paint2_linear_378_3295)" stroke-width="0.6"/>
<rect x="0.3" y="0.300977" width="42.4" height="42.4" rx="9.7" stroke="url(#paint3_linear_378_3295)" stroke-width="0.6"/>
<defs>
<filter id="filter0_f_378_3295" x="-35" y="7" width="113" height="92" filterUnits="userSpaceOnUse" color-interpolation-filters="sRGB">
<feFlood flood-opacity="0" result="BackgroundImageFix"/>
<feBlend mode="normal" in="SourceGraphic" in2="BackgroundImageFix" result="shape"/>
<feGaussianBlur stdDeviation="16" result="effect1_foregroundBlur_378_3295"/>
</filter>
<linearGradient id="paint0_linear_378_3295" x1="22" y1="10.1255" x2="22" y2="34.5952" gradientUnits="userSpaceOnUse">
<stop stop-color="white"/>
<stop offset="1" stop-color="white" stop-opacity="0.5"/>
</linearGradient>
<linearGradient id="paint1_linear_378_3295" x1="22" y1="15.8545" x2="22" y2="31.8763" gradientUnits="userSpaceOnUse">
<stop stop-color="white" stop-opacity="0"/>
<stop offset="1" stop-color="white"/>
</linearGradient>
<linearGradient id="paint2_linear_378_3295" x1="21.5" y1="39.7434" x2="21.5" y2="43.001" gradientUnits="userSpaceOnUse">
<stop stop-color="#020614" stop-opacity="0"/>
<stop offset="1" stop-color="#49C0FF"/>
</linearGradient>
<linearGradient id="paint3_linear_378_3295" x1="38.4394" y1="12.7055" x2="43" y2="0.000975521" gradientUnits="userSpaceOnUse">
<stop stop-color="white" stop-opacity="0"/>
<stop offset="1" stop-color="white"/>
</linearGradient>
<clipPath id="clip0_378_3295">
<rect y="0.000976562" width="43" height="43" rx="10" fill="white"/>
</clipPath>
</defs>
</svg>
